<?xml version="1.0" encoding="UTF-8" standalone="no"?><!DOCTYPE svg PUBLIC "-//W3C//DTD SVG 1.1//EN" "http://www.w3.org/Graphics/SVG/1.1/DTD/svg11.dtd"><svg width="100%" height="100%" viewBox="0 0 638 179" version="1.1" xmlns="http://www.w3.org/2000/svg" xmlns:xlink="http://www.w3.org/1999/xlink" xml:space="preserve" xmlns:serif="http://www.serif.com/" style="fill-rule:evenodd;clip-rule:evenodd;stroke-linejoin:round;stroke-miterlimit:2;"><rect id="Full-Text-Black" serif:id="Full Text Black" x="0.563" y="0.088" width="636.181" height="178.576" style="fill:none;"/><path d="M73.895,167.978c-16.459,7.221 -36.854,5.448 -51.642,-9.34c-29.045,-29.044 -7.882,-79.719 33.017,-79.719l17.017,0c-0,9.21 7.204,19.053 19.37,19.053c10.315,-0 18.969,-8.596 18.969,-19.053l17.39,0c17.314,0 30.86,-19.615 23.995,-36.177c-0.882,-2.128 -6.594,-15.91 -23.995,-15.91c-13.19,-0 -26.044,12.854 -26.044,26.043l0.003,9.8c-3.729,-2.347 -6.878,-3.002 -10.318,-3.042c-3.439,-0.04 -6.831,0.702 -10.318,2.8l-0.026,-9.557c0,-40.899 50.675,-62.062 79.719,-33.017c29.045,29.044 7.882,79.719 -33.016,79.719l-26.044,-0l-0,68.4l-20.659,0l0.026,-68.4l-26.069,-0c-22.808,-0 -34.609,28.259 -18.412,44.456c10.991,10.991 27.537,9.082 37.037,-0.404l-0,24.348Z"/><path d="M81.339,167.979l0,-67l20.636,0l0,67l-20.636,0Zm10.184,-77.452c-3.305,0 -6.097,-1.139 -8.375,-3.417c-2.278,-2.278 -3.417,-5.069 -3.417,-8.375c0,-3.305 1.139,-6.074 3.417,-8.308c2.278,-2.233 5.07,-3.35 8.375,-3.35c3.216,0 5.963,1.117 8.241,3.35c2.278,2.234 3.417,5.003 3.417,8.308c0,3.306 -1.139,6.097 -3.417,8.375c-2.278,2.278 -5.025,3.417 -8.241,3.417Z" style="fill-rule:nonzero;"/><path d="M138.155,167.979l-20.636,0l0,-67l19.43,0l1.34,6.968c2.055,-2.858 4.891,-5.092 8.509,-6.7c3.618,-1.608 7.616,-2.412 11.993,-2.412c7.951,0 14.137,2.435 18.559,7.303c4.422,4.869 6.633,11.681 6.633,20.435l0,41.406l-20.636,0l0,-36.448c0,-4.198 -1.072,-7.571 -3.216,-10.117c-2.144,-2.546 -5.002,-3.819 -8.576,-3.819c-4.109,0 -7.37,1.229 -9.782,3.685c-2.412,2.457 -3.618,5.785 -3.618,9.983l0,36.716Z" style="fill-rule:nonzero;"/><path d="M192.425,100.979l75.308,0l0,17.152l-75.308,0l0,-17.152Zm44.488,-33.232l0,17.688l-5.762,0c-3.573,0 -5.94,0.983 -7.102,2.948c-1.161,1.966 -1.742,4.378 -1.742,7.236l0,72.36l-20.636,0l0,-72.36c0,-6.7 1.072,-12.149 3.216,-16.348c2.144,-4.198 5.182,-7.303 9.112,-9.313c3.931,-2.01 8.487,-3.015 13.668,-3.015c1.43,0 2.926,0.067 4.489,0.201c1.564,0.134 3.149,0.335 4.757,0.603Zm10.05,100.232l0,-67l20.77,0l0,67l-20.77,0Zm10.452,-77.452c-3.305,0 -6.097,-1.139 -8.375,-3.417c-2.278,-2.278 -3.417,-5.069 -3.417,-8.375c0,-3.305 1.139,-6.074 3.417,-8.308c2.278,-2.233 5.07,-3.35 8.375,-3.35c3.216,0 5.963,1.117 8.241,3.35c2.278,2.234 3.417,5.003 3.417,8.308c0,3.306 -1.139,6.097 -3.417,8.375c-2.278,2.278 -5.025,3.417 -8.241,3.417Z" style="fill-rule:nonzero;"/><path d="M304.047,167.979l-20.636,0l0,-67l19.43,0l1.34,6.968c2.055,-2.858 4.891,-5.092 8.509,-6.7c3.618,-1.608 7.616,-2.412 11.993,-2.412c7.951,0 14.137,2.435 18.559,7.303c4.422,4.869 6.633,11.681 6.633,20.435l0,41.406l-20.636,0l0,-36.448c0,-4.198 -1.072,-7.571 -3.216,-10.117c-2.144,-2.546 -5.002,-3.819 -8.576,-3.819c-4.109,0 -7.37,1.229 -9.782,3.685c-2.412,2.457 -3.618,5.785 -3.618,9.983l0,36.716Z" style="fill-rule:nonzero;"/><path d="M364.615,167.979l0,-67l20.636,0l0,67l-20.636,0Zm10.184,-77.452c-3.305,0 -6.097,-1.139 -8.375,-3.417c-2.278,-2.278 -3.417,-5.069 -3.417,-8.375c0,-3.305 1.139,-6.074 3.417,-8.308c2.278,-2.233 5.07,-3.35 8.375,-3.35c3.216,0 5.963,1.117 8.241,3.35c2.278,2.234 3.417,5.003 3.417,8.308c0,3.306 -1.139,6.097 -3.417,8.375c-2.278,2.278 -5.025,3.417 -8.241,3.417Z" style="fill-rule:nonzero;"/><path d="M394.497,100.979l46.096,0l0,17.152l-46.096,0l0,-17.152Zm33.366,67l-20.636,0l0,-87.77l20.636,0l0,87.77Z" style="fill-rule:nonzero;"/><path d="M449.839,167.979l0,-67l20.636,0l0,67l-20.636,0Zm10.184,-77.452c-3.305,0 -6.097,-1.139 -8.375,-3.417c-2.278,-2.278 -3.417,-5.069 -3.417,-8.375c0,-3.305 1.139,-6.074 3.417,-8.308c2.278,-2.233 5.07,-3.35 8.375,-3.35c3.216,0 5.963,1.117 8.241,3.35c2.278,2.234 3.417,5.003 3.417,8.308c0,3.306 -1.139,6.097 -3.417,8.375c-2.278,2.278 -5.025,3.417 -8.241,3.417Z" style="fill-rule:nonzero;"/><path d="M505.047,167.979l-26.13,-67l22.244,0l8.174,23.45c1.698,4.914 3.149,9.313 4.355,13.199c1.206,3.886 1.943,6.589 2.211,8.107c0.447,-1.965 1.318,-4.913 2.613,-8.844c1.296,-3.93 2.792,-8.084 4.489,-12.462l8.978,-23.45l21.44,0l-28.006,67l-20.368,0Z" style="fill-rule:nonzero;"/><path d="M589.601,169.721c-6.7,0 -12.663,-1.518 -17.889,-4.556c-5.226,-3.037 -9.335,-7.213 -12.328,-12.529c-2.992,-5.315 -4.489,-11.412 -4.489,-18.291c0,-6.968 1.452,-13.109 4.355,-18.425c2.904,-5.315 6.946,-9.491 12.127,-12.529c5.182,-3.037 11.122,-4.556 17.822,-4.556c7.058,0 13.132,1.457 18.224,4.37c5.092,2.913 9.023,7.036 11.792,12.37c2.77,5.332 4.154,11.672 4.154,19.022l0,5.242l-57.486,0l0,-12.596l36.984,0c0,-3.573 -1.206,-6.409 -3.618,-8.509c-2.412,-2.099 -5.717,-3.149 -9.916,-3.149c-3.484,0 -6.32,0.67 -8.509,2.01c-2.188,1.34 -3.819,3.417 -4.891,6.231c-1.072,2.814 -1.608,6.41 -1.608,10.787c0,6.254 1.273,10.877 3.819,13.869c2.546,2.993 6.499,4.489 11.859,4.489c3.931,0 7.192,-0.67 9.782,-2.01c2.591,-1.34 4.244,-3.216 4.958,-5.628l18.894,0c-1.161,7.415 -4.824,13.333 -10.988,17.755c-6.164,4.422 -13.846,6.633 -23.048,6.633Z" style="fill-rule:nonzero;"/></svg>