<?xml version="1.0" encoding="UTF-8" standalone="no"?><!DOCTYPE svg PUBLIC "-//W3C//DTD SVG 1.1//EN" "http://www.w3.org/Graphics/SVG/1.1/DTD/svg11.dtd"><svg width="100%" height="100%" viewBox="0 0 199 199" version="1.1" xmlns="http://www.w3.org/2000/svg" xmlns:xlink="http://www.w3.org/1999/xlink" xml:space="preserve" xmlns:serif="http://www.serif.com/" style="fill-rule:evenodd;clip-rule:evenodd;stroke-linejoin:round;stroke-miterlimit:2;"><rect id="Glyph-Black" serif:id="Glyph Black" x="0.605" y="0.962" width="197.902" height="197.902" style="fill-opacity:0;"/><path d="M88.456,88.813l0,-27.987c0,-27.699 22.488,-50.188 50.187,-50.188c27.7,0 50.188,22.489 50.188,50.188c-0,27.699 -22.488,50.187 -50.188,50.187l-27.987,0l0,27.987c0,27.7 -22.488,50.188 -50.187,50.188c-27.699,-0 -50.188,-22.488 -50.188,-50.188c0,-27.699 22.489,-50.187 50.188,-50.187l27.987,0Zm0,22.2l-27.987,0c-15.447,0 -27.988,12.541 -27.988,27.987c0,15.447 12.541,27.988 27.988,27.988c15.446,-0 27.987,-12.541 27.987,-27.988l0,-27.987Zm22.2,-22.2l27.987,0c15.447,0 27.988,-12.541 27.988,-27.987c-0,-15.447 -12.541,-27.988 -27.988,-27.988c-15.446,0 -27.987,12.541 -27.987,27.988l0,27.987Z"/></svg>